<?xml version="1.0" encoding="utf-8"?>
<!-- Generator: Adobe Illustrator 25.4.1, SVG Export Plug-In . SVG Version: 6.00 Build 0)  -->
<svg version="1.1" id="Capa_1" xmlns="http://www.w3.org/2000/svg" xmlns:xlink="http://www.w3.org/1999/xlink" x="0px" y="0px"
	 viewBox="0 0 109.5 25" style="enable-background:new 0 0 109.5 25;" xml:space="preserve">
<style type="text/css">
	.st0{fill:#DE2600;}
	.st1{fill:#FFFFFF;}
</style>
<path class="st0" d="M10.9,8.4L15,0h6.7l-7.2,12.4L22.3,25h-7L11,16.4L6.7,25H0l7.4-12.6L0.2,0h6.6L10.9,8.4z"/>
<g>
	<g>
		<path class="st1" d="M20,20.7V4.3h5.3c2,0,3.3,0.1,3.9,0.2c0.9,0.2,1.7,0.8,2.4,1.6c0.6,0.8,1,1.9,1,3.2c0,1-0.2,1.9-0.5,2.5
			c-0.4,0.7-0.8,1.2-1.4,1.6c-0.6,0.4-1.1,0.7-1.7,0.8c-0.8,0.2-1.9,0.2-3.4,0.2h-2.2v6.2H20z M23.3,7.1v4.7h1.8
			c1.3,0,2.2-0.1,2.6-0.3s0.8-0.4,1-0.8c0.3-0.4,0.4-0.8,0.4-1.3c0-0.6-0.2-1.1-0.5-1.5c-0.4-0.4-0.8-0.6-1.3-0.7
			c-0.4-0.1-1.2-0.1-2.4-0.1H23.3z"/>
		<path class="st1" d="M33.8,20.7V4.3h3.3v6.5h6.5V4.3H47v16.4h-3.3v-7.2h-6.5v7.2H33.8z"/>
		<path class="st1" d="M48.2,12.6c0-1.7,0.3-3.1,0.8-4.2c0.4-0.8,0.9-1.6,1.5-2.3c0.6-0.7,1.4-1.2,2.1-1.5c1-0.4,2.2-0.6,3.5-0.6
			c2.4,0,4.4,0.8,5.8,2.3s2.2,3.6,2.2,6.3c0,2.7-0.7,4.7-2.2,6.2c-1.4,1.5-3.4,2.2-5.8,2.2c-2.4,0-4.4-0.7-5.8-2.2
			C48.9,17.3,48.2,15.2,48.2,12.6z M51.6,12.5c0,1.9,0.4,3.3,1.3,4.2c0.9,1,1.9,1.4,3.3,1.4c1.3,0,2.4-0.5,3.3-1.4
			c0.8-1,1.3-2.4,1.3-4.3c0-1.9-0.4-3.3-1.2-4.2c-0.8-0.9-1.9-1.4-3.3-1.4c-1.4,0-2.5,0.5-3.3,1.4C52.1,9.2,51.6,10.6,51.6,12.5z"/>
		<path class="st1" d="M69,20.7V7.1h-4.9V4.3h13v2.8h-4.9v13.6H69z"/>
		<path class="st1" d="M77.2,12.6c0-1.7,0.2-3.1,0.8-4.2c0.4-0.8,0.9-1.6,1.5-2.3c0.6-0.7,1.4-1.2,2.1-1.5c1-0.4,2.2-0.6,3.5-0.6
			c2.4,0,4.4,0.8,5.8,2.3c1.5,1.5,2.2,3.6,2.2,6.3c0,2.7-0.7,4.7-2.2,6.2c-1.4,1.5-3.4,2.2-5.8,2.2c-2.4,0-4.4-0.7-5.8-2.2
			S77.2,15.2,77.2,12.6z M80.6,12.5c0,1.9,0.4,3.3,1.3,4.2c0.9,1,1.9,1.4,3.3,1.4s2.4-0.5,3.3-1.4c0.8-1,1.3-2.4,1.3-4.3
			c0-1.9-0.4-3.3-1.2-4.2c-0.8-0.9-1.9-1.4-3.3-1.4s-2.5,0.5-3.3,1.4C81,9.2,80.6,10.6,80.6,12.5z"/>
		<path class="st1" d="M94.2,15.4l3.2-0.3c0.2,1.1,0.6,1.9,1.2,2.4c0.6,0.5,1.4,0.8,2.4,0.8c1.1,0,1.9-0.2,2.4-0.7
			c0.5-0.5,0.8-1,0.8-1.6c0-0.4-0.1-0.7-0.3-1c-0.2-0.3-0.6-0.5-1.2-0.7c-0.4-0.1-1.3-0.4-2.7-0.7c-1.8-0.4-3-1-3.7-1.6
			c-1-0.9-1.5-2-1.5-3.3c0-0.8,0.2-1.6,0.7-2.3c0.5-0.7,1.2-1.3,2-1.7c0.9-0.4,2-0.6,3.2-0.6c2.1,0,3.6,0.5,4.7,1.4
			c1,0.9,1.6,2.1,1.6,3.6l-3.3,0.1c-0.1-0.8-0.4-1.4-0.9-1.8c-0.5-0.4-1.2-0.6-2.1-0.6c-1,0-1.7,0.2-2.3,0.6c-0.4,0.3-0.5,0.6-0.5,1
			c0,0.4,0.2,0.7,0.5,1c0.4,0.4,1.4,0.7,3,1.1c1.6,0.4,2.8,0.8,3.6,1.2s1.4,1,1.8,1.7c0.4,0.7,0.7,1.6,0.7,2.6
			c0,0.9-0.3,1.8-0.8,2.6c-0.5,0.8-1.3,1.4-2.2,1.8c-1,0.4-2.1,0.6-3.6,0.6c-2.1,0-3.7-0.5-4.8-1.4C95.1,18.6,94.5,17.2,94.2,15.4z"
			/>
	</g>
</g>
</svg>
